<svg id="Capa_1" data-name="Capa 1" xmlns="http://www.w3.org/2000/svg" viewBox="0 0 335.63 334.83"><defs><style>.cls-1{fill:#fff;}</style></defs><circle cx="167.78" cy="167.72" r="127.7"/><path class="cls-1" d="M222.57,142c22.73-31.54,40-46.06,49.29-49.79q-2.3-2.81-4.74-5.49c-4,2-9.42,5.58-16.63,12.15C240.23,108.37,229,121.48,217.25,138c-33.61,46.5-44.24,78.84-49.94,96.38-1.71,5.29-3.42,11-4.94,12.47-3.22-1.9-7.59-12.47,19.18-68.9,20.13-42.28,56.4-82.65,48.24-102.09a11.14,11.14,0,0,0-1.33-2.33c-3-4.44-8.55-4.65-11.4-4.23-13.1,1.06-29.43,16.28-48.8,45.24A424.55,424.55,0,0,0,143.19,157c-8.54,15.43-22,44.18-38,93.85-3.54,10.6-7.24,18.2-10.89,22.7,2.06,1.61,4.16,3.17,6.32,4.66,14.25-15.45,22.8-50,22.8-50,3.6-13.1,6.26-21.34,9.68-30.65,4.18-11.62,8.16-21.34,11.77-29.16l3.8-7.82a471.26,471.26,0,0,1,24.69-41.86c8.16-12,15.76-22,22.79-28.95,8.35-8.46,15.57-12.9,21.45-13.32,0,0,4.94-.63,6.08,2.11,6.08,17.33-43.68,52.85-64.56,106.32-12.92,28.54-10.26,53.48-10.26,53.48s.57,6.76,2.09,10.57c1.9,4.44,4.75,8,10.06,8.46,10.64.63,17.48-25.58,23.93-42.49A425.56,425.56,0,0,1,222.57,142Z" transform="translate(-5.14 -5.21)"/><path class="cls-1" d="M279.16,177.71a3.36,3.36,0,0,0-3,1.9c-28.67,52.63-41.21,50.52-41.21,50.52s-10.63-2.54,12.16-52.21c13.69-29.91,30.64-52,36.42-68.86q-2.7-4.65-5.75-9c-5.17,18.69-44.64,49.6-55.36,85.94C208.71,233.09,234,235.83,234,235.83,249.35,238.16,274,194,280.87,181.3,281.63,179.61,280.68,177.71,279.16,177.71Z" transform="translate(-5.14 -5.21)"/><path class="cls-1" d="M64.54,240.43a127.88,127.88,0,0,0,19.15,23.8,107.65,107.65,0,0,1,1.59-11.91C92.49,218.71,113,182.57,113,182.57c12.34-20.93,49.37-76.73,55.26-85.19,11.39-16.27,5.32-23.46.57-26.63a5.49,5.49,0,0,0-1.52-.84c-3.8-2.12-9.49-2.33-16.9-.64-7,1.69-15.76,5.08-26,9.94C107.49,87.45,91.73,97.6,91,98c-11.81,7.33-22.77,13.71-33,19.21-1.62,3.33-3.08,6.76-4.41,10.26,12.32-6.34,25.81-14,40.62-23.13,0,0,27.35-15.85,32.85-18.39,9.88-4.65,18-8,24.69-9.51,4.75-1.27,8.73-1.48,11.2-.63a3.08,3.08,0,0,1,2.28,1.47c4.37,9.94-44.62,52-77.67,102.1C71.65,203.6,65.5,224.11,64.54,240.43Z" transform="translate(-5.14 -5.21)"/><path d="M162.06,17.85c.12-7.4,5.84-12.76,13.45-12.64A12.24,12.24,0,0,1,184.69,9L183,10.71a10,10,0,0,0-7.42-3.12,10.33,10.33,0,0,0-10.85,10.3,10.31,10.31,0,0,0,10.51,10.63,9.88,9.88,0,0,0,7.52-2.91l1.67,1.73a12.32,12.32,0,0,1-9.34,3.56C167.49,30.78,162,25.24,162.06,17.85Z" transform="translate(-5.14 -5.21)"/><path d="M188.61,18.24C190,11,196.51,6.65,204,8.06s12,7.79,10.65,15.07-7.94,11.58-15.39,10.18S187.25,25.47,188.61,18.24Zm23.45,4.39a10.61,10.61,0,0,0-20.86-3.91,10.61,10.61,0,0,0,20.86,3.91Z" transform="translate(-5.14 -5.21)"/><path d="M246,21.76l-9.55,23.39-2-.83L227.13,19.2l-7.75,19-2.47-1,9.55-23.39,2,.83,7.32,25.13,7.75-19Z" transform="translate(-5.14 -5.21)"/><path d="M257.21,30.72l-5.3,8.38,11,7L261.72,48l-11-7L245,50.12l-2.26-1.43,13.5-21.35,14.64,9.26-1.23,1.95Z" transform="translate(-5.14 -5.21)"/><path d="M275.83,70.88l-1.53,1.73-13.41-11.8,16.68-19,13,11.44L289.05,55l-11-9.68-5.94,6.75,9.82,8.63-1.51,1.7-9.81-8.62-6.19,7Z" transform="translate(-5.14 -5.21)"/><path d="M286.19,66.68c5.74-4.67,13.52-3.74,18.32,2.17a12.2,12.2,0,0,1,3,9.49l-2.39-.25a10,10,0,0,0-2.39-7.68,10.47,10.47,0,1,0-16.24,13.2,9.9,9.9,0,0,0,7.07,3.88l-.25,2.39A12.28,12.28,0,0,1,284.56,85C279.77,79.15,280.45,71.34,286.19,66.68Z" transform="translate(-5.14 -5.21)"/><path d="M302.65,87.51c6.45-3.62,14-1.38,17.68,5.26a12.22,12.22,0,0,1,1.32,9.86l-2.31-.65a10,10,0,0,0-1-8A10.47,10.47,0,1,0,300,104.25a9.94,9.94,0,0,0,6.3,5l-.64,2.31a12.28,12.28,0,0,1-7.79-6.26C294.2,98.71,296.2,91.13,302.65,87.51Z" transform="translate(-5.14 -5.21)"/><path d="M327.62,108.48l1,2.47-23.39,9.54-1-2.47Z" transform="translate(-5.14 -5.21)"/><path d="M319.88,122c7.14-1.81,13.83,2.31,15.7,9.73s-2,14.17-9.21,16-13.84-2.35-15.7-9.69S312.74,123.84,319.88,122Zm5.84,23.12A10.61,10.61,0,1,0,313,137.47,10.23,10.23,0,0,0,325.72,145.16Z" transform="translate(-5.14 -5.21)"/><path d="M340.77,175.55l-25.24,1.18-.1-2.2,19.73-17.18-20.48,1-.13-2.67,25.24-1.17.1,2.2-19.72,17.21,20.48-1Z" transform="translate(-5.14 -5.21)"/><path d="M315,201.9l-2.29-.3L315,183.88l25.05,3.31-2.27,17.18-2.29-.3,1.92-14.53-8.91-1.18-1.71,13-2.26-.3,1.71-13-9.3-1.23Z" transform="translate(-5.14 -5.21)"/><path d="M315,205.32l1.67,1.58a12.44,12.44,0,0,0-5.31,7.12c-1.34,4.53,0,7.07,2.36,7.78,6.64,2,7-14.15,15.94-11.49,3.57,1.06,5.82,4.74,4,10.9a14.25,14.25,0,0,1-4.38,6.87l-1.78-1.48a13.06,13.06,0,0,0,4-6c1.31-4.43-.07-7-2.5-7.7-6.64-2-7.05,14.12-15.87,11.51-3.56-1.06-5.77-4.8-3.93-11C310.22,209.74,312.56,206.56,315,205.32Z" transform="translate(-5.14 -5.21)"/><path d="M309.58,270.78,288,257.7l1.32-2.19L306.58,266l-9.41-17.29.65-1.08,19.59.25-17.2-10.41,1.33-2.19,21.61,13.07L322,250.21l-21.71-.31,10.41,19Z" transform="translate(-5.14 -5.21)"/><path d="M273,277.79l-1.71-1.56,12.06-13.18L302,280.1l-11.69,12.78-1.71-1.56,9.89-10.81-6.63-6.06L283,284.09l-1.67-1.54,8.81-9.64-6.92-6.33Z" transform="translate(-5.14 -5.21)"/><path d="M266,312.68l-15.31-20.1,1.75-1.34,25.35,6.47L265.33,281.4l2.12-1.61,15.31,20.1L281,301.22l-25.38-6.45,12.42,16.31Z" transform="translate(-5.14 -5.21)"/><path d="M233.4,309.36,246,303l-.32-7.39,2.48-1.25,1,27.76-2.35,1.19L225.14,306l2.52-1.27Zm1.84,1.49,11.5,9.41-.66-14.84Z" transform="translate(-5.14 -5.21)"/><path d="M225.2,308.91l-.38,2.28a12.42,12.42,0,0,0-8.88-.45c-4.51,1.41-5.88,3.92-5.14,6.29,2.06,6.62,15.64-2.08,18.43,6.85,1.1,3.55-.7,7.47-6.83,9.38a14.26,14.26,0,0,1-8.14.2l.22-2.3a13,13,0,0,0,7.24-.07c4.41-1.37,5.76-3.95,5-6.36-2.06-6.62-15.67,2-18.4-6.77-1.11-3.55.77-7.47,6.94-9.39C218.88,307.44,222.83,307.61,225.2,308.91Z" transform="translate(-5.14 -5.21)"/><path d="M195.59,324.51l-9.39,1.1-.26-2.22,9.39-1.1Z" transform="translate(-5.14 -5.21)"/><path d="M171.62,328.22C171,335.6,165,340.59,157.41,340a12.21,12.21,0,0,1-8.92-4.4l1.82-1.55a10.07,10.07,0,0,0,7.22,3.57,10.47,10.47,0,1,0,1.64-20.87,9.84,9.84,0,0,0-7.68,2.44l-1.56-1.83a12.29,12.29,0,0,1,9.54-3C167,315,172.21,320.85,171.62,328.22Z" transform="translate(-5.14 -5.21)"/><path d="M145.05,325.91c-1.93,7.11-8.8,10.93-16.19,8.92s-11.35-8.73-9.41-15.87S128.28,308,135.6,310,147,318.81,145.05,325.91Zm-23-6.25a10.62,10.62,0,1,0,13-7.33A10.24,10.24,0,0,0,122,319.66Z" transform="translate(-5.14 -5.21)"/><path d="M88.15,317.85l11.37-22.56,2,1,5.27,25.62L116,303.59l2.38,1.2L107,327.35l-2-1-5.3-25.63L90.5,319Z" transform="translate(-5.14 -5.21)"/><path d="M77.69,308l6-7.94-10.46-7.84,1.39-1.85L85,298.25l6.42-8.58,2.14,1.6L78.44,311.49,64.58,301.1,66,299.25Z" transform="translate(-5.14 -5.21)"/><path d="M62.28,266.53l1.66-1.61,12.45,12.82-18.13,17.6L46.19,282.91l1.66-1.61,10.21,10.52,6.45-6.27-9.11-9.37L57,274.6,66.14,284l6.73-6.54Z" transform="translate(-5.14 -5.21)"/><path d="M51.62,269.91c-6.09,4.2-13.77,2.66-18.1-3.61a12.26,12.26,0,0,1-2.21-9.69l2.36.43a10,10,0,0,0,1.77,7.85A10.47,10.47,0,1,0,52.68,253a9.92,9.92,0,0,0-6.74-4.42l.43-2.36a12.29,12.29,0,0,1,8.33,5.52C59,258,57.71,265.71,51.62,269.91Z" transform="translate(-5.14 -5.21)"/><path d="M36.87,247.86c-6.72,3.1-14,.27-17.22-6.64a12.24,12.24,0,0,1-.53-9.93l2.25.83a10,10,0,0,0,.42,8,10.47,10.47,0,1,0,19-8.77,9.92,9.92,0,0,0-5.89-5.51l.83-2.25A12.25,12.25,0,0,1,43,230.48C46.17,237.36,43.58,244.76,36.87,247.86Z" transform="translate(-5.14 -5.21)"/><path d="M13.63,225l-.81-2.55,24.08-7.65.81,2.55Z" transform="translate(-5.14 -5.21)"/><path d="M22.42,212.07c-7.26,1.23-13.6-3.41-14.88-10.95s3.16-14,10.45-15.21,13.62,3.44,14.88,10.92S29.68,210.84,22.42,212.07Zm-4-23.52A10.61,10.61,0,0,0,22,209.47a10.61,10.61,0,0,0-3.54-20.92Z" transform="translate(-5.14 -5.21)"/><path d="M5.8,157.1l25.25.78-.07,2.2-21,15.6,20.49.63L30.39,179,5.14,178.2l.07-2.2,21-15.64-20.49-.63Z" transform="translate(-5.14 -5.21)"/><path d="M33.62,132.84l2.26.48-3.74,17.47L7.43,145.5l3.63-16.94,2.26.49-3.07,14.33L19,145.26l2.73-12.78L24,133l-2.74,12.77,9.18,2Z" transform="translate(-5.14 -5.21)"/><path d="M33.88,129.44l-1.54-1.72a12.34,12.34,0,0,0,5.86-6.67c1.7-4.41.59-7-1.73-7.94-6.47-2.5-8.09,13.55-16.81,10.19-3.47-1.34-5.43-5.19-3.12-11.18a14.33,14.33,0,0,1,4.91-6.51l1.66,1.61a13.14,13.14,0,0,0-4.45,5.71c-1.66,4.31-.48,7,1.88,7.88,6.46,2.5,8.15-13.52,16.74-10.21,3.47,1.33,5.37,5.24,3,11.27C39,125.4,36.38,128.39,33.88,129.44Z" transform="translate(-5.14 -5.21)"/><path d="M44.44,64.61,65,79.35l-1.49,2.08L47.05,69.64l8,18-.74,1L34.82,86.85,51.15,98.58l-1.5,2.08L29.13,85.92l1.29-1.79,21.61,2L43.16,66.39Z" transform="translate(-5.14 -5.21)"/><path d="M81.47,60.5l1.58,1.69L70,74.39,52.75,55.93,65.41,44.1,67,45.79l-10.7,10,6.13,6.57L72,53.44l1.55,1.66L64,64l6.4,6.86Z" transform="translate(-5.14 -5.21)"/><path d="M91.23,26.26,104.9,47.5l-1.85,1.19L78.29,40.24l11.1,17.24-2.25,1.45L73.47,37.68l1.85-1.19,24.78,8.43L89,27.68Z" transform="translate(-5.14 -5.21)"/><path d="M123.41,32.15l-13,5.3-.27,7.39-2.57,1,1.19-27.75,2.44-1L131.37,36.2l-2.61,1.06Zm-1.72-1.64L111,20.22l-.51,14.86Z" transform="translate(-5.14 -5.21)"/><path d="M131.54,33.25l.57-2.24a12.41,12.41,0,0,0,8.81,1.15c4.61-1,6.18-3.43,5.63-5.86-1.53-6.76-15.76.83-17.83-8.29-.82-3.63,1.29-7.4,7.56-8.81a14.22,14.22,0,0,1,8.13.45L144,11.93a13,13,0,0,0-7.22-.52c-4.51,1-6.06,3.48-5.5,5.95,1.53,6.76,15.77-.76,17.81,8.22.82,3.62-1.37,7.37-7.67,8.8C137.72,35.22,133.8,34.73,131.54,33.25Z" transform="translate(-5.14 -5.21)"/></svg>